<?xml version="1.0" encoding="utf-8"?>
<!-- Generator: Adobe Illustrator 16.0.0, SVG Export Plug-In . SVG Version: 6.00 Build 0)  -->
<!DOCTYPE svg PUBLIC "-//W3C//DTD SVG 1.1//EN" "http://www.w3.org/Graphics/SVG/1.1/DTD/svg11.dtd">
<svg version="1.1" id="레이어_1" xmlns="http://www.w3.org/2000/svg" xmlns:xlink="http://www.w3.org/1999/xlink" x="0px"
	 y="0px" width="1068px" height="426px" viewBox="0 0 1068 426" enable-background="new 0 0 1068 426" xml:space="preserve">
<g enable-background="new    ">
	<path fill="#212222" d="M216.837,46.741l-61.663,74.317l-8.911,50.436h-29.584l8.911-50.614L91.55,46.741h31.723l13.188,31.545
		c3.325,8.081,5.346,14.258,6.059,18.535h0.535c2.139-3.921,6.416-10.039,12.832-18.356l24.772-31.724H216.837z"/>
	<path fill="#212222" d="M208.905,168.731c-6.238-3.146-11.021-7.484-14.347-13.01c-3.328-5.524-4.99-11.852-4.99-18.98
		c0-10.692,2.317-20.196,6.95-28.515c4.634-8.314,11.345-14.851,20.139-19.604c8.791-4.751,19.069-7.129,30.832-7.129
		c8.315,0,15.563,1.635,21.743,4.901c6.176,3.269,10.93,7.725,14.257,13.366c3.325,5.645,4.99,11.971,4.99,18.979
		c0,10.337-2.317,19.666-6.95,27.98c-4.634,8.318-11.317,14.854-20.05,19.604c-8.732,4.753-19.042,7.128-30.921,7.128
		C222.36,173.454,215.143,171.879,208.905,168.731z M247.756,146.544c3.859-2.612,6.889-6.088,9.089-10.426
		c2.197-4.336,3.297-8.939,3.297-13.813c0-5.463-1.487-9.802-4.456-13.01c-2.971-3.208-7.07-4.812-12.297-4.812
		c-4.99,0-9.418,1.309-13.277,3.921c-3.862,2.614-6.861,6.06-9,10.336c-2.139,4.277-3.208,8.911-3.208,13.901
		c0,5.467,1.484,9.802,4.456,13.01c2.968,3.208,7.128,4.813,12.475,4.813C239.586,150.465,243.894,149.158,247.756,146.544z"/>
	<path fill="#212222" d="M309.418,165.523c-5.168-5.285-7.752-12.622-7.752-22.01c0-2.611,0.295-5.819,0.891-9.623l8.911-50.437
		h28.515l-8.732,49.188c-0.356,1.782-0.535,3.506-0.535,5.168c0,3.921,1.039,6.981,3.119,9.179c2.078,2.2,5.138,3.297,9.178,3.297
		c4.99,0,9.535-1.81,13.634-5.436c4.099-3.623,6.683-8.523,7.752-14.703l8.198-46.693h28.515l-15.683,88.04h-25.485
		c0.713-4.277,1.96-9.563,3.743-15.861h-0.535c-3.328,5.229-7.992,9.507-13.99,12.832c-6.001,3.324-12.447,4.989-19.336,4.989
		C321.387,173.454,314.586,170.812,309.418,165.523z"/>
	<path fill="#212222" d="M456.18,105.197l-5.881,32.97c-0.239,1.902-0.356,3.149-0.356,3.743c0,5.347,2.554,8.02,7.664,8.02
		c3.564,0,7.307-0.83,11.228-2.495l3.208,21.208c-7.961,3.088-16.101,4.634-24.416,4.634c-8.081,0-14.556-2.228-19.426-6.684
		c-4.874-4.455-7.307-10.898-7.307-19.336c0-2.852,0.237-5.525,0.713-8.021l6.06-34.039h-14.792l3.92-21.743h14.614l3.92-21.92
		l29.05-3.03l-4.456,24.95h21.564l-3.743,21.743H456.18z"/>
	<path fill="#212222" d="M497.258,165.523c-5.168-5.285-7.752-12.622-7.752-22.01c0-2.611,0.295-5.819,0.891-9.623l8.911-50.437
		h28.515l-8.732,49.188c-0.356,1.782-0.535,3.506-0.535,5.168c0,3.921,1.039,6.981,3.119,9.179c2.078,2.2,5.138,3.297,9.178,3.297
		c4.99,0,9.535-1.81,13.634-5.436c4.099-3.623,6.683-8.523,7.753-14.703l8.197-46.693h28.516l-15.684,88.04h-25.485
		c0.713-4.277,1.96-9.563,3.743-15.861h-0.535c-3.328,5.229-7.992,9.507-13.99,12.832c-6.001,3.324-12.447,4.989-19.336,4.989
		C509.226,173.454,502.426,170.812,497.258,165.523z"/>
	<path fill="#212222" d="M634.217,169.088c-4.754-2.909-8.26-6.8-10.515-11.673h-0.356c-0.833,7.485-1.487,12.18-1.961,14.079
		h-25.307l22.099-124.753h28.337l-3.742,21.564c-2.022,11.406-4.634,20.913-7.842,28.516l0.534,0.178
		c3.802-4.751,8.377-8.523,13.723-11.316c5.347-2.791,11.406-4.188,18.179-4.188c6.532,0,12.386,1.546,17.555,4.634
		c5.168,3.091,9.236,7.485,12.208,13.188c2.968,5.702,4.455,12.357,4.455,19.96c0,9.863-2.11,18.922-6.327,27.178
		c-4.219,8.26-10.13,14.823-17.732,19.693c-7.604,4.873-16.279,7.307-26.02,7.307C644.731,173.454,638.967,171.998,634.217,169.088z
		 M660.682,146.544c3.979-2.495,7.129-5.882,9.446-10.159c2.316-4.276,3.475-8.969,3.475-14.079c0-5.346-1.576-9.623-4.723-12.831
		c-3.149-3.208-7.396-4.813-12.742-4.813c-4.634,0-8.884,1.248-12.743,3.743c-3.862,2.495-6.922,5.881-9.178,10.158
		c-2.259,4.277-3.387,9.03-3.387,14.258c0,5.346,1.516,9.596,4.545,12.742c3.029,3.149,7.156,4.723,12.386,4.723
		C652.395,150.286,656.7,149.039,660.682,146.544z"/>
	<path fill="#212222" d="M739.542,135.494v0.178c0,4.874,1.662,8.645,4.99,11.317c3.325,2.673,7.78,4.01,13.366,4.01
		c9.624,0,18.059-2.612,25.307-7.842l9.803,18c-11.406,8.198-24.655,12.297-39.743,12.297c-12.358,0-22.366-3.118-30.029-9.356
		c-7.663-6.237-11.495-15.117-11.495-26.644c0-10.81,2.228-20.464,6.683-28.96c4.456-8.493,10.811-15.118,19.069-19.871
		c8.257-4.751,17.97-7.129,29.139-7.129c11.999,0,21.414,2.972,28.248,8.911c6.83,5.942,10.247,14.079,10.247,24.416
		c0,2.971-0.387,6.357-1.158,10.158c-0.774,3.804-1.693,7.307-2.763,10.515H739.542z M750.77,106.979
		c-4.16,2.971-7.012,7.189-8.554,12.653h36c0.355-1.662,0.534-3.208,0.534-4.634c0-4.157-1.22-7.276-3.653-9.356
		c-2.437-2.077-5.792-3.119-10.069-3.119C759.681,102.523,754.928,104.011,750.77,106.979z"/>
	<path fill="#212222" d="M811.896,171.494l15.505-88.04h25.485c-1.069,4.99-2.316,10.101-3.742,15.327h0.356
		c2.731-5.107,6.505-9.268,11.316-12.476c4.813-3.208,10.365-4.812,16.664-4.812c4.633,0,8.85,0.774,12.653,2.316l-10.693,23.703
		c-3.447-0.949-6.535-1.426-9.268-1.426c-5.586,0-10.367,1.813-14.347,5.436c-3.981,3.626-6.565,8.822-7.752,15.595l-7.842,44.376
		H811.896z"/>
	<path fill="#212222" d="M881.045,164.544l11.228-19.604c8.791,4.277,18.356,6.416,28.693,6.416c4.514,0,7.989-0.651,10.426-1.96
		c2.434-1.307,3.653-3.089,3.653-5.347c0-2.02-1.041-3.623-3.119-4.813c-2.08-1.186-5.675-2.139-10.782-2.852
		c-19.247-2.731-28.871-11.107-28.871-25.128c0-9.385,3.832-16.691,11.495-21.921c7.663-5.227,17.493-7.842,29.495-7.842
		c6.652,0,13.01,0.685,19.069,2.05c6.06,1.367,10.93,3.18,14.614,5.436l-10.337,19.782c-4.277-1.899-8.705-3.325-13.277-4.277
		c-4.575-0.949-8.585-1.426-12.029-1.426c-4.16,0-7.279,0.624-9.356,1.871c-2.08,1.248-3.119,2.94-3.119,5.079
		c0,2.021,0.98,3.595,2.94,4.723c1.961,1.131,5.138,1.933,9.535,2.406c8.91,0.952,16.218,3.536,21.921,7.753
		c5.702,4.219,8.554,10.13,8.554,17.732c0,9.387-4.01,16.902-12.029,22.544c-8.02,5.645-19.042,8.466-33.06,8.466
		C902.787,173.633,890.905,170.604,881.045,164.544z"/>
</g>
<g enable-background="new    ">
	<path fill="none" stroke="#212222" stroke-miterlimit="10" d="M216.837,46.741l-61.663,74.317l-8.911,50.436h-29.584l8.911-50.614
		L91.55,46.741h31.723l13.188,31.545c3.325,8.081,5.346,14.258,6.059,18.535h0.535c2.139-3.921,6.416-10.039,12.832-18.356
		l24.772-31.724H216.837z"/>
	<path fill="none" stroke="#212222" stroke-miterlimit="10" d="M208.905,168.731c-6.238-3.146-11.021-7.484-14.347-13.01
		c-3.328-5.524-4.99-11.852-4.99-18.98c0-10.692,2.317-20.196,6.95-28.515c4.634-8.314,11.345-14.851,20.139-19.604
		c8.791-4.751,19.069-7.129,30.832-7.129c8.315,0,15.563,1.635,21.743,4.901c6.176,3.269,10.93,7.725,14.257,13.366
		c3.325,5.645,4.99,11.971,4.99,18.979c0,10.337-2.317,19.666-6.95,27.98c-4.634,8.318-11.317,14.854-20.05,19.604
		c-8.732,4.753-19.042,7.128-30.921,7.128C222.36,173.454,215.143,171.879,208.905,168.731z M247.756,146.544
		c3.859-2.612,6.889-6.088,9.089-10.426c2.197-4.336,3.297-8.939,3.297-13.813c0-5.463-1.487-9.802-4.456-13.01
		c-2.971-3.208-7.07-4.812-12.297-4.812c-4.99,0-9.418,1.309-13.277,3.921c-3.862,2.614-6.861,6.06-9,10.336
		c-2.139,4.277-3.208,8.911-3.208,13.901c0,5.467,1.484,9.802,4.456,13.01c2.968,3.208,7.128,4.813,12.475,4.813
		C239.586,150.465,243.894,149.158,247.756,146.544z"/>
	<path fill="none" stroke="#212222" stroke-miterlimit="10" d="M309.418,165.523c-5.168-5.285-7.752-12.622-7.752-22.01
		c0-2.611,0.295-5.819,0.891-9.623l8.911-50.437h28.515l-8.732,49.188c-0.356,1.782-0.535,3.506-0.535,5.168
		c0,3.921,1.039,6.981,3.119,9.179c2.078,2.2,5.138,3.297,9.178,3.297c4.99,0,9.535-1.81,13.634-5.436
		c4.099-3.623,6.683-8.523,7.752-14.703l8.198-46.693h28.515l-15.683,88.04h-25.485c0.713-4.277,1.96-9.563,3.743-15.861h-0.535
		c-3.328,5.229-7.992,9.507-13.99,12.832c-6.001,3.324-12.447,4.989-19.336,4.989C321.387,173.454,314.586,170.812,309.418,165.523z
		"/>
	<path fill="none" stroke="#212222" stroke-miterlimit="10" d="M456.18,105.197l-5.881,32.97c-0.239,1.902-0.356,3.149-0.356,3.743
		c0,5.347,2.554,8.02,7.664,8.02c3.564,0,7.307-0.83,11.228-2.495l3.208,21.208c-7.961,3.088-16.101,4.634-24.416,4.634
		c-8.081,0-14.556-2.228-19.426-6.684c-4.874-4.455-7.307-10.898-7.307-19.336c0-2.852,0.237-5.525,0.713-8.021l6.06-34.039h-14.792
		l3.92-21.743h14.614l3.92-21.92l29.05-3.03l-4.456,24.95h21.564l-3.743,21.743H456.18z"/>
	<path fill="none" stroke="#212222" stroke-miterlimit="10" d="M497.258,165.523c-5.168-5.285-7.752-12.622-7.752-22.01
		c0-2.611,0.295-5.819,0.891-9.623l8.911-50.437h28.515l-8.732,49.188c-0.356,1.782-0.535,3.506-0.535,5.168
		c0,3.921,1.039,6.981,3.119,9.179c2.078,2.2,5.138,3.297,9.178,3.297c4.99,0,9.535-1.81,13.634-5.436
		c4.099-3.623,6.683-8.523,7.753-14.703l8.197-46.693h28.516l-15.684,88.04h-25.485c0.713-4.277,1.96-9.563,3.743-15.861h-0.535
		c-3.328,5.229-7.992,9.507-13.99,12.832c-6.001,3.324-12.447,4.989-19.336,4.989C509.226,173.454,502.426,170.812,497.258,165.523z
		"/>
	<path fill="none" stroke="#212222" stroke-miterlimit="10" d="M634.217,169.088c-4.754-2.909-8.26-6.8-10.515-11.673h-0.356
		c-0.833,7.485-1.487,12.18-1.961,14.079h-25.307l22.099-124.753h28.337l-3.742,21.564c-2.022,11.406-4.634,20.913-7.842,28.516
		l0.534,0.178c3.802-4.751,8.377-8.523,13.723-11.316c5.347-2.791,11.406-4.188,18.179-4.188c6.532,0,12.386,1.546,17.555,4.634
		c5.168,3.091,9.236,7.485,12.208,13.188c2.968,5.702,4.455,12.357,4.455,19.96c0,9.863-2.11,18.922-6.327,27.178
		c-4.219,8.26-10.13,14.823-17.732,19.693c-7.604,4.873-16.279,7.307-26.02,7.307C644.731,173.454,638.967,171.998,634.217,169.088z
		 M660.682,146.544c3.979-2.495,7.129-5.882,9.446-10.159c2.316-4.276,3.475-8.969,3.475-14.079c0-5.346-1.576-9.623-4.723-12.831
		c-3.149-3.208-7.396-4.813-12.742-4.813c-4.634,0-8.884,1.248-12.743,3.743c-3.862,2.495-6.922,5.881-9.178,10.158
		c-2.259,4.277-3.387,9.03-3.387,14.258c0,5.346,1.516,9.596,4.545,12.742c3.029,3.149,7.156,4.723,12.386,4.723
		C652.395,150.286,656.7,149.039,660.682,146.544z"/>
	<path fill="none" stroke="#212222" stroke-miterlimit="10" d="M739.542,135.494v0.178c0,4.874,1.662,8.645,4.99,11.317
		c3.325,2.673,7.78,4.01,13.366,4.01c9.624,0,18.059-2.612,25.307-7.842l9.803,18c-11.406,8.198-24.655,12.297-39.743,12.297
		c-12.358,0-22.366-3.118-30.029-9.356c-7.663-6.237-11.495-15.117-11.495-26.644c0-10.81,2.228-20.464,6.683-28.96
		c4.456-8.493,10.811-15.118,19.069-19.871c8.257-4.751,17.97-7.129,29.139-7.129c11.999,0,21.414,2.972,28.248,8.911
		c6.83,5.942,10.247,14.079,10.247,24.416c0,2.971-0.387,6.357-1.158,10.158c-0.774,3.804-1.693,7.307-2.763,10.515H739.542z
		 M750.77,106.979c-4.16,2.971-7.012,7.189-8.554,12.653h36c0.355-1.662,0.534-3.208,0.534-4.634c0-4.157-1.22-7.276-3.653-9.356
		c-2.437-2.077-5.792-3.119-10.069-3.119C759.681,102.523,754.928,104.011,750.77,106.979z"/>
	<path fill="none" stroke="#212222" stroke-miterlimit="10" d="M811.896,171.494l15.505-88.04h25.485
		c-1.069,4.99-2.316,10.101-3.742,15.327h0.356c2.731-5.107,6.505-9.268,11.316-12.476c4.813-3.208,10.365-4.812,16.664-4.812
		c4.633,0,8.85,0.774,12.653,2.316l-10.693,23.703c-3.447-0.949-6.535-1.426-9.268-1.426c-5.586,0-10.367,1.813-14.347,5.436
		c-3.981,3.626-6.565,8.822-7.752,15.595l-7.842,44.376H811.896z"/>
	<path fill="none" stroke="#212222" stroke-miterlimit="10" d="M881.045,164.544l11.228-19.604
		c8.791,4.277,18.356,6.416,28.693,6.416c4.514,0,7.989-0.651,10.426-1.96c2.434-1.307,3.653-3.089,3.653-5.347
		c0-2.02-1.041-3.623-3.119-4.813c-2.08-1.186-5.675-2.139-10.782-2.852c-19.247-2.731-28.871-11.107-28.871-25.128
		c0-9.385,3.832-16.691,11.495-21.921c7.663-5.227,17.493-7.842,29.495-7.842c6.652,0,13.01,0.685,19.069,2.05
		c6.06,1.367,10.93,3.18,14.614,5.436l-10.337,19.782c-4.277-1.899-8.705-3.325-13.277-4.277c-4.575-0.949-8.585-1.426-12.029-1.426
		c-4.16,0-7.279,0.624-9.356,1.871c-2.08,1.248-3.119,2.94-3.119,5.079c0,2.021,0.98,3.595,2.94,4.723
		c1.961,1.131,5.138,1.933,9.535,2.406c8.91,0.952,16.218,3.536,21.921,7.753c5.702,4.219,8.554,10.13,8.554,17.732
		c0,9.387-4.01,16.902-12.029,22.544c-8.02,5.645-19.042,8.466-33.06,8.466C902.787,173.633,890.905,170.604,881.045,164.544z"/>
</g>
<g enable-background="new    ">
	<path fill="#212222" d="M160.164,258.856c12.832,0,22.871,3.448,30.119,10.337c7.246,6.893,10.871,16.218,10.871,27.98
		c0,10.1-2.2,19.011-6.594,26.732c-4.397,7.725-10.724,13.723-18.98,18c-8.259,4.277-18.031,6.416-29.317,6.416h-26.198
		l-6.238,35.287H84.244l21.92-124.753H160.164z M148.937,323.193c6.533,0,11.94-2.139,16.218-6.416s6.416-9.919,6.416-16.931
		c0-4.87-1.426-8.671-4.277-11.405c-2.852-2.732-6.892-4.1-12.119-4.1h-24.238l-6.772,38.852H148.937z"/>
	<path fill="#212222" d="M230.559,383.609h-28.336l15.505-88.04h28.336L230.559,383.609z M223.252,283.362
		c-2.615-2.317-3.921-5.437-3.921-9.356c0-4.871,1.871-9.028,5.614-12.476c3.743-3.444,8.226-5.168,13.456-5.168
		c4.394,0,7.869,1.188,10.426,3.563c2.553,2.379,3.832,5.525,3.832,9.446c0,4.753-1.871,8.853-5.614,12.297
		c-3.743,3.447-8.109,5.168-13.099,5.168C229.429,286.837,225.864,285.679,223.252,283.362z"/>
	<path fill="#212222" d="M266.38,375.5c-7.485-6.711-11.228-16.245-11.228-28.604c0-9.86,2.317-18.86,6.95-27
		c4.634-8.137,11.167-14.553,19.604-19.247c8.435-4.692,18.178-7.04,29.228-7.04c6.416,0,11.999,0.802,16.752,2.406
		c4.75,1.604,9.445,4.188,14.079,7.752l-14.792,18.535c-4.634-3.802-10.398-5.703-17.287-5.703c-4.99,0-9.477,1.22-13.456,3.653
		c-3.982,2.437-7.129,5.733-9.446,9.891c-2.316,4.161-3.475,8.675-3.475,13.545c0,12.595,5.881,18.892,17.644,18.892
		c3.921,0,7.543-0.624,10.872-1.872c3.325-1.247,6.772-3.118,10.336-5.613l9.445,20.495c-5.586,3.684-11.2,6.268-16.841,7.752
		c-5.645,1.484-11.793,2.228-18.446,2.228C283.845,385.569,273.865,382.214,266.38,375.5z"/>
	<path fill="#212222" d="M443.885,295.569l-39.743,44.198l29.763,43.842h-31.723l-12.832-19.604
		c-5.11-7.842-8.674-13.545-10.693-17.109l-0.713,0.179c-0.596,8.081-1.545,15.803-2.852,23.168l-2.317,13.366h-28.336
		l22.099-124.753h28.336l-6.951,39.564c-1.545,9.031-3.684,19.426-6.416,31.188l0.535,0.179c4.157-5.94,8.493-11.406,13.01-16.396
		l15.861-17.822H443.885z"/>
	<path fill="#212222" d="M595.37,258.856l-4.456,25.129h-57.029l-5.347,30.476h53.466l-4.455,24.772h-53.466l-7.842,44.376h-29.584
		l22.099-124.753H595.37z"/>
	<path fill="#212222" d="M610.964,380.847c-6.237-3.146-11.021-7.484-14.347-13.01c-3.328-5.524-4.99-11.852-4.99-18.98
		c0-10.692,2.317-20.196,6.951-28.515c4.633-8.314,11.344-14.851,20.139-19.604c8.791-4.751,19.068-7.129,30.832-7.129
		c8.314,0,15.563,1.635,21.742,4.901c6.176,3.269,10.93,7.725,14.258,13.366c3.324,5.645,4.99,11.971,4.99,18.979
		c0,10.337-2.318,19.666-6.951,27.98c-4.635,8.318-11.316,14.854-20.049,19.604c-8.734,4.753-19.043,7.128-30.922,7.128
		C624.42,385.569,617.201,383.994,610.964,380.847z M649.814,358.659c3.861-2.612,6.891-6.088,9.09-10.426
		c2.197-4.336,3.297-8.939,3.297-13.813c0-5.463-1.486-9.802-4.455-13.01c-2.971-3.208-7.07-4.812-12.297-4.812
		c-4.99,0-9.418,1.309-13.277,3.921c-3.863,2.614-6.861,6.06-9,10.336c-2.139,4.277-3.207,8.911-3.207,13.901
		c0,5.467,1.482,9.802,4.455,13.01c2.969,3.208,7.129,4.813,12.475,4.813C641.645,362.58,645.953,361.273,649.814,358.659z"/>
	<path fill="#212222" d="M719.854,380.847c-6.238-3.146-11.022-7.484-14.347-13.01c-3.328-5.524-4.99-11.852-4.99-18.98
		c0-10.692,2.316-20.196,6.95-28.515c4.634-8.314,11.345-14.851,20.139-19.604c8.791-4.751,19.069-7.129,30.832-7.129
		c8.314,0,15.563,1.635,21.742,4.901c6.177,3.269,10.93,7.725,14.258,13.366c3.324,5.645,4.99,11.971,4.99,18.979
		c0,10.337-2.317,19.666-6.951,27.98c-4.634,8.318-11.316,14.854-20.049,19.604c-8.733,4.753-19.042,7.128-30.921,7.128
		C733.309,385.569,726.091,383.994,719.854,380.847z M758.704,358.659c3.86-2.612,6.89-6.088,9.09-10.426
		c2.197-4.336,3.297-8.939,3.297-13.813c0-5.463-1.487-9.802-4.455-13.01c-2.972-3.208-7.07-4.812-12.298-4.812
		c-4.99,0-9.417,1.309-13.277,3.921c-3.862,2.614-6.861,6.06-9,10.336c-2.138,4.277-3.207,8.911-3.207,13.901
		c0,5.467,1.483,9.802,4.455,13.01c2.969,3.208,7.129,4.813,12.476,4.813C750.534,362.58,754.842,361.273,758.704,358.659z"/>
	<path fill="#212222" d="M826.248,381.025c-5.169-3.03-9.24-7.365-12.208-13.01c-2.972-5.642-4.456-12.267-4.456-19.872
		c0-9.504,1.961-18.445,5.882-26.821s9.534-15.087,16.841-20.139c7.308-5.049,15.772-7.574,25.396-7.574
		c15.087,0,24.89,6.06,29.406,18.179h0.534c-0.239-3.564-0.356-6.118-0.356-7.664c0-5.703,0.713-12.831,2.139-21.386l4.277-23.882
		h28.337l-22.1,124.753h-26.02c0.474-2.731,1.662-7.485,3.564-14.258h-0.356c-8.198,10.813-19.247,16.218-33.148,16.218
		C837.325,385.569,831.416,384.055,826.248,381.025z M867.684,358.659c3.921-2.495,7.009-5.882,9.267-10.159
		c2.256-4.276,3.387-9.027,3.387-14.257c0-5.347-1.515-9.593-4.545-12.743c-3.029-3.146-7.218-4.723-12.564-4.723
		c-4.873,0-9.239,1.248-13.099,3.743c-3.862,2.495-6.861,5.854-9,10.069c-2.139,4.219-3.208,8.941-3.208,14.168
		c0,5.467,1.454,9.774,4.366,12.921c2.91,3.149,7.099,4.723,12.564,4.723C859.485,362.401,863.763,361.154,867.684,358.659z"/>
	<path fill="#212222" d="M917.406,376.659l11.228-19.604c8.791,4.277,18.356,6.416,28.693,6.416c4.514,0,7.989-0.651,10.426-1.96
		c2.434-1.307,3.653-3.089,3.653-5.347c0-2.02-1.041-3.623-3.119-4.813c-2.08-1.186-5.675-2.139-10.782-2.852
		c-19.247-2.731-28.871-11.107-28.871-25.128c0-9.385,3.832-16.691,11.495-21.921c7.663-5.227,17.493-7.842,29.495-7.842
		c6.652,0,13.01,0.685,19.069,2.05c6.06,1.367,10.93,3.18,14.614,5.436l-10.337,19.782c-4.277-1.899-8.705-3.325-13.277-4.277
		c-4.575-0.949-8.585-1.426-12.029-1.426c-4.16,0-7.279,0.624-9.356,1.871c-2.08,1.248-3.119,2.94-3.119,5.079
		c0,2.021,0.98,3.595,2.94,4.723c1.961,1.131,5.138,1.933,9.535,2.406c8.91,0.952,16.218,3.536,21.921,7.753
		c5.702,4.219,8.554,10.13,8.554,17.732c0,9.387-4.01,16.902-12.029,22.544c-8.02,5.645-19.042,8.466-33.06,8.466
		C939.148,385.748,927.267,382.719,917.406,376.659z"/>
</g>
<g enable-background="new    ">
	<path fill="none" stroke="#212222" stroke-miterlimit="10" d="M160.164,258.856c12.832,0,22.871,3.448,30.119,10.337
		c7.246,6.893,10.871,16.218,10.871,27.98c0,10.1-2.2,19.011-6.594,26.732c-4.397,7.725-10.724,13.723-18.98,18
		c-8.259,4.277-18.031,6.416-29.317,6.416h-26.198l-6.238,35.287H84.244l21.92-124.753H160.164z M148.937,323.193
		c6.533,0,11.94-2.139,16.218-6.416s6.416-9.919,6.416-16.931c0-4.87-1.426-8.671-4.277-11.405c-2.852-2.732-6.892-4.1-12.119-4.1
		h-24.238l-6.772,38.852H148.937z"/>
	<path fill="none" stroke="#212222" stroke-miterlimit="10" d="M230.559,383.609h-28.336l15.505-88.04h28.336L230.559,383.609z
		 M223.252,283.362c-2.615-2.317-3.921-5.437-3.921-9.356c0-4.871,1.871-9.028,5.614-12.476c3.743-3.444,8.226-5.168,13.456-5.168
		c4.394,0,7.869,1.188,10.426,3.563c2.553,2.379,3.832,5.525,3.832,9.446c0,4.753-1.871,8.853-5.614,12.297
		c-3.743,3.447-8.109,5.168-13.099,5.168C229.429,286.837,225.864,285.679,223.252,283.362z"/>
	<path fill="none" stroke="#212222" stroke-miterlimit="10" d="M266.38,375.5c-7.485-6.711-11.228-16.245-11.228-28.604
		c0-9.86,2.317-18.86,6.95-27c4.634-8.137,11.167-14.553,19.604-19.247c8.435-4.692,18.178-7.04,29.228-7.04
		c6.416,0,11.999,0.802,16.752,2.406c4.75,1.604,9.445,4.188,14.079,7.752l-14.792,18.535c-4.634-3.802-10.398-5.703-17.287-5.703
		c-4.99,0-9.477,1.22-13.456,3.653c-3.982,2.437-7.129,5.733-9.446,9.891c-2.316,4.161-3.475,8.675-3.475,13.545
		c0,12.595,5.881,18.892,17.644,18.892c3.921,0,7.543-0.624,10.872-1.872c3.325-1.247,6.772-3.118,10.336-5.613l9.445,20.495
		c-5.586,3.684-11.2,6.268-16.841,7.752c-5.645,1.484-11.793,2.228-18.446,2.228C283.845,385.569,273.865,382.214,266.38,375.5z"/>
	<path fill="none" stroke="#212222" stroke-miterlimit="10" d="M443.885,295.569l-39.743,44.198l29.763,43.842h-31.723
		l-12.832-19.604c-5.11-7.842-8.674-13.545-10.693-17.109l-0.713,0.179c-0.596,8.081-1.545,15.803-2.852,23.168l-2.317,13.366
		h-28.336l22.099-124.753h28.336l-6.951,39.564c-1.545,9.031-3.684,19.426-6.416,31.188l0.535,0.179
		c4.157-5.94,8.493-11.406,13.01-16.396l15.861-17.822H443.885z"/>
	<path fill="none" stroke="#212222" stroke-miterlimit="10" d="M595.37,258.856l-4.456,25.129h-57.029l-5.347,30.476h53.466
		l-4.455,24.772h-53.466l-7.842,44.376h-29.584l22.099-124.753H595.37z"/>
	<path fill="none" stroke="#212222" stroke-miterlimit="10" d="M610.964,380.847c-6.237-3.146-11.021-7.484-14.347-13.01
		c-3.328-5.524-4.99-11.852-4.99-18.98c0-10.692,2.317-20.196,6.951-28.515c4.633-8.314,11.344-14.851,20.139-19.604
		c8.791-4.751,19.068-7.129,30.832-7.129c8.314,0,15.563,1.635,21.742,4.901c6.176,3.269,10.93,7.725,14.258,13.366
		c3.324,5.645,4.99,11.971,4.99,18.979c0,10.337-2.318,19.666-6.951,27.98c-4.635,8.318-11.316,14.854-20.049,19.604
		c-8.734,4.753-19.043,7.128-30.922,7.128C624.42,385.569,617.201,383.994,610.964,380.847z M649.814,358.659
		c3.861-2.612,6.891-6.088,9.09-10.426c2.197-4.336,3.297-8.939,3.297-13.813c0-5.463-1.486-9.802-4.455-13.01
		c-2.971-3.208-7.07-4.812-12.297-4.812c-4.99,0-9.418,1.309-13.277,3.921c-3.863,2.614-6.861,6.06-9,10.336
		c-2.139,4.277-3.207,8.911-3.207,13.901c0,5.467,1.482,9.802,4.455,13.01c2.969,3.208,7.129,4.813,12.475,4.813
		C641.645,362.58,645.953,361.273,649.814,358.659z"/>
	<path fill="none" stroke="#212222" stroke-miterlimit="10" d="M719.854,380.847c-6.238-3.146-11.022-7.484-14.347-13.01
		c-3.328-5.524-4.99-11.852-4.99-18.98c0-10.692,2.316-20.196,6.95-28.515c4.634-8.314,11.345-14.851,20.139-19.604
		c8.791-4.751,19.069-7.129,30.832-7.129c8.314,0,15.563,1.635,21.742,4.901c6.177,3.269,10.93,7.725,14.258,13.366
		c3.324,5.645,4.99,11.971,4.99,18.979c0,10.337-2.317,19.666-6.951,27.98c-4.634,8.318-11.316,14.854-20.049,19.604
		c-8.733,4.753-19.042,7.128-30.921,7.128C733.309,385.569,726.091,383.994,719.854,380.847z M758.704,358.659
		c3.86-2.612,6.89-6.088,9.09-10.426c2.197-4.336,3.297-8.939,3.297-13.813c0-5.463-1.487-9.802-4.455-13.01
		c-2.972-3.208-7.07-4.812-12.298-4.812c-4.99,0-9.417,1.309-13.277,3.921c-3.862,2.614-6.861,6.06-9,10.336
		c-2.138,4.277-3.207,8.911-3.207,13.901c0,5.467,1.483,9.802,4.455,13.01c2.969,3.208,7.129,4.813,12.476,4.813
		C750.534,362.58,754.842,361.273,758.704,358.659z"/>
	<path fill="none" stroke="#212222" stroke-miterlimit="10" d="M826.248,381.025c-5.169-3.03-9.24-7.365-12.208-13.01
		c-2.972-5.642-4.456-12.267-4.456-19.872c0-9.504,1.961-18.445,5.882-26.821s9.534-15.087,16.841-20.139
		c7.308-5.049,15.772-7.574,25.396-7.574c15.087,0,24.89,6.06,29.406,18.179h0.534c-0.239-3.564-0.356-6.118-0.356-7.664
		c0-5.703,0.713-12.831,2.139-21.386l4.277-23.882h28.337l-22.1,124.753h-26.02c0.474-2.731,1.662-7.485,3.564-14.258h-0.356
		c-8.198,10.813-19.247,16.218-33.148,16.218C837.325,385.569,831.416,384.055,826.248,381.025z M867.684,358.659
		c3.921-2.495,7.009-5.882,9.267-10.159c2.256-4.276,3.387-9.027,3.387-14.257c0-5.347-1.515-9.593-4.545-12.743
		c-3.029-3.146-7.218-4.723-12.564-4.723c-4.873,0-9.239,1.248-13.099,3.743c-3.862,2.495-6.861,5.854-9,10.069
		c-2.139,4.219-3.208,8.941-3.208,14.168c0,5.467,1.454,9.774,4.366,12.921c2.91,3.149,7.099,4.723,12.564,4.723
		C859.485,362.401,863.763,361.154,867.684,358.659z"/>
	<path fill="none" stroke="#212222" stroke-miterlimit="10" d="M917.406,376.659l11.228-19.604
		c8.791,4.277,18.356,6.416,28.693,6.416c4.514,0,7.989-0.651,10.426-1.96c2.434-1.307,3.653-3.089,3.653-5.347
		c0-2.02-1.041-3.623-3.119-4.813c-2.08-1.186-5.675-2.139-10.782-2.852c-19.247-2.731-28.871-11.107-28.871-25.128
		c0-9.385,3.832-16.691,11.495-21.921c7.663-5.227,17.493-7.842,29.495-7.842c6.652,0,13.01,0.685,19.069,2.05
		c6.06,1.367,10.93,3.18,14.614,5.436l-10.337,19.782c-4.277-1.899-8.705-3.325-13.277-4.277c-4.575-0.949-8.585-1.426-12.029-1.426
		c-4.16,0-7.279,0.624-9.356,1.871c-2.08,1.248-3.119,2.94-3.119,5.079c0,2.021,0.98,3.595,2.94,4.723
		c1.961,1.131,5.138,1.933,9.535,2.406c8.91,0.952,16.218,3.536,21.921,7.753c5.702,4.219,8.554,10.13,8.554,17.732
		c0,9.387-4.01,16.902-12.029,22.544c-8.02,5.645-19.042,8.466-33.06,8.466C939.148,385.748,927.267,382.719,917.406,376.659z"/>
</g>
<g enable-background="new    ">
	<path fill="#E7211A" d="M208.502,37.615l-61.663,74.317l-8.911,50.436h-29.584l8.911-50.614l-34.04-74.139h31.723l13.188,31.545
		c3.325,8.081,5.346,14.258,6.059,18.535h0.535c2.139-3.921,6.416-10.039,12.832-18.356l24.772-31.724H208.502z"/>
	<path fill="#E7211A" d="M200.57,159.605c-6.238-3.146-11.021-7.484-14.347-13.01c-3.328-5.524-4.99-11.852-4.99-18.98
		c0-10.692,2.317-20.196,6.95-28.515c4.634-8.314,11.345-14.851,20.139-19.604c8.791-4.751,19.069-7.129,30.832-7.129
		c8.315,0,15.563,1.635,21.743,4.901c6.176,3.269,10.93,7.725,14.257,13.366c3.325,5.645,4.99,11.971,4.99,18.979
		c0,10.337-2.317,19.666-6.95,27.98c-4.634,8.318-11.317,14.854-20.05,19.604c-8.732,4.753-19.042,7.128-30.921,7.128
		C214.025,164.328,206.808,162.753,200.57,159.605z M239.421,137.418c3.859-2.612,6.889-6.088,9.089-10.426
		c2.197-4.336,3.297-8.939,3.297-13.813c0-5.463-1.487-9.802-4.456-13.01c-2.971-3.208-7.07-4.812-12.297-4.812
		c-4.99,0-9.418,1.309-13.277,3.921c-3.862,2.614-6.861,6.06-9,10.336c-2.139,4.277-3.208,8.911-3.208,13.901
		c0,5.467,1.484,9.802,4.456,13.01c2.968,3.208,7.128,4.813,12.475,4.813C231.251,141.339,235.559,140.032,239.421,137.418z"/>
	<path fill="#E7211A" d="M301.083,156.397c-5.168-5.285-7.752-12.622-7.752-22.01c0-2.611,0.295-5.819,0.891-9.623l8.911-50.437
		h28.515l-8.732,49.188c-0.356,1.782-0.535,3.506-0.535,5.168c0,3.921,1.039,6.981,3.119,9.179c2.078,2.2,5.138,3.297,9.178,3.297
		c4.99,0,9.535-1.81,13.634-5.436c4.099-3.623,6.683-8.523,7.752-14.703l8.198-46.693h28.515l-15.683,88.04h-25.485
		c0.713-4.277,1.96-9.563,3.743-15.861h-0.535c-3.328,5.229-7.992,9.507-13.99,12.832c-6.001,3.324-12.447,4.989-19.336,4.989
		C313.052,164.328,306.251,161.686,301.083,156.397z"/>
	<path fill="#E7211A" d="M447.845,96.071l-5.881,32.97c-0.239,1.902-0.356,3.149-0.356,3.743c0,5.347,2.554,8.02,7.664,8.02
		c3.564,0,7.307-0.83,11.228-2.495l3.208,21.208c-7.961,3.088-16.101,4.634-24.416,4.634c-8.081,0-14.556-2.228-19.426-6.684
		c-4.874-4.455-7.307-10.898-7.307-19.336c0-2.852,0.237-5.525,0.713-8.021l6.06-34.039h-14.792l3.92-21.743h14.614l3.92-21.92
		l29.05-3.03l-4.456,24.95h21.564l-3.743,21.743H447.845z"/>
	<path fill="#E7211A" d="M488.923,156.397c-5.168-5.285-7.752-12.622-7.752-22.01c0-2.611,0.295-5.819,0.891-9.623l8.911-50.437
		h28.515l-8.732,49.188c-0.356,1.782-0.535,3.506-0.535,5.168c0,3.921,1.039,6.981,3.119,9.179c2.078,2.2,5.138,3.297,9.178,3.297
		c4.99,0,9.535-1.81,13.634-5.436c4.1-3.623,6.684-8.523,7.752-14.703l8.199-46.693h28.514l-15.683,88.04h-25.485
		c0.713-4.277,1.961-9.563,3.742-15.861h-0.534c-3.327,5.229-7.991,9.507-13.99,12.832c-6.001,3.324-12.447,4.989-19.336,4.989
		C500.891,164.328,494.091,161.686,488.923,156.397z"/>
	<path fill="#E7211A" d="M625.882,159.962c-4.754-2.909-8.26-6.8-10.515-11.673h-0.356c-0.833,7.485-1.487,12.18-1.961,14.079
		h-25.307l22.099-124.753h28.337l-3.742,21.564c-2.022,11.406-4.634,20.913-7.842,28.516l0.534,0.178
		c3.802-4.751,8.377-8.523,13.723-11.316c5.347-2.791,11.406-4.188,18.179-4.188c6.532,0,12.386,1.546,17.555,4.634
		c5.168,3.091,9.236,7.485,12.208,13.188c2.968,5.702,4.455,12.357,4.455,19.96c0,9.863-2.11,18.922-6.327,27.178
		c-4.219,8.26-10.13,14.823-17.732,19.693c-7.604,4.873-16.279,7.307-26.02,7.307C636.396,164.328,630.632,162.872,625.882,159.962z
		 M652.347,137.418c3.979-2.495,7.129-5.882,9.446-10.159c2.316-4.276,3.475-8.969,3.475-14.079c0-5.346-1.576-9.623-4.723-12.831
		c-3.149-3.208-7.396-4.813-12.742-4.813c-4.634,0-8.884,1.248-12.743,3.743c-3.862,2.495-6.922,5.881-9.178,10.158
		c-2.259,4.277-3.387,9.03-3.387,14.258c0,5.346,1.516,9.596,4.545,12.742c3.029,3.149,7.156,4.723,12.386,4.723
		C644.06,141.16,648.365,139.913,652.347,137.418z"/>
	<path fill="#E7211A" d="M731.207,126.368v0.178c0,4.874,1.662,8.645,4.99,11.317c3.325,2.673,7.78,4.01,13.366,4.01
		c9.624,0,18.059-2.612,25.307-7.842l9.803,18c-11.406,8.198-24.655,12.297-39.743,12.297c-12.358,0-22.366-3.118-30.029-9.356
		c-7.663-6.237-11.495-15.117-11.495-26.644c0-10.81,2.228-20.464,6.683-28.96c4.456-8.493,10.811-15.118,19.069-19.871
		c8.257-4.751,17.97-7.129,29.139-7.129c11.999,0,21.414,2.972,28.248,8.911c6.83,5.942,10.247,14.079,10.247,24.416
		c0,2.971-0.387,6.357-1.158,10.158c-0.774,3.804-1.693,7.307-2.763,10.515H731.207z M742.435,97.854
		c-4.16,2.971-7.012,7.189-8.554,12.653h36c0.355-1.662,0.534-3.208,0.534-4.634c0-4.157-1.22-7.276-3.653-9.356
		c-2.437-2.077-5.792-3.119-10.069-3.119C751.346,93.397,746.593,94.885,742.435,97.854z"/>
	<path fill="#E7211A" d="M803.561,162.368l15.505-88.04h25.485c-1.069,4.99-2.316,10.101-3.742,15.327h0.356
		c2.731-5.107,6.505-9.268,11.316-12.476c4.813-3.208,10.365-4.812,16.664-4.812c4.633,0,8.85,0.774,12.653,2.316l-10.693,23.703
		c-3.447-0.949-6.535-1.426-9.268-1.426c-5.586,0-10.367,1.813-14.347,5.436c-3.981,3.626-6.565,8.822-7.752,15.595l-7.842,44.376
		H803.561z"/>
	<path fill="#E7211A" d="M872.71,155.418l11.228-19.604c8.791,4.277,18.356,6.416,28.693,6.416c4.514,0,7.989-0.651,10.426-1.96
		c2.434-1.307,3.653-3.089,3.653-5.347c0-2.02-1.041-3.623-3.119-4.813c-2.08-1.186-5.675-2.139-10.782-2.852
		c-19.247-2.731-28.871-11.107-28.871-25.128c0-9.385,3.832-16.691,11.495-21.921c7.663-5.227,17.493-7.842,29.495-7.842
		c6.652,0,13.01,0.685,19.069,2.05c6.06,1.367,10.93,3.18,14.614,5.436l-10.337,19.782c-4.277-1.899-8.705-3.325-13.277-4.277
		c-4.575-0.949-8.585-1.426-12.029-1.426c-4.16,0-7.279,0.624-9.356,1.871c-2.08,1.248-3.119,2.94-3.119,5.079
		c0,2.021,0.98,3.595,2.94,4.723c1.961,1.131,5.138,1.933,9.535,2.406c8.91,0.952,16.218,3.536,21.921,7.753
		c5.702,4.219,8.554,10.13,8.554,17.732c0,9.387-4.01,16.902-12.029,22.544c-8.02,5.645-19.042,8.466-33.06,8.466
		C894.452,164.507,882.57,161.478,872.71,155.418z"/>
</g>
<g enable-background="new    ">
	<path fill="none" stroke="#212222" stroke-miterlimit="10" d="M208.502,37.615l-61.663,74.317l-8.911,50.436h-29.584l8.911-50.614
		l-34.04-74.139h31.723l13.188,31.545c3.325,8.081,5.346,14.258,6.059,18.535h0.535c2.139-3.921,6.416-10.039,12.832-18.356
		l24.772-31.724H208.502z"/>
	<path fill="none" stroke="#212222" stroke-miterlimit="10" d="M200.57,159.605c-6.238-3.146-11.021-7.484-14.347-13.01
		c-3.328-5.524-4.99-11.852-4.99-18.98c0-10.692,2.317-20.196,6.95-28.515c4.634-8.314,11.345-14.851,20.139-19.604
		c8.791-4.751,19.069-7.129,30.832-7.129c8.315,0,15.563,1.635,21.743,4.901c6.176,3.269,10.93,7.725,14.257,13.366
		c3.325,5.645,4.99,11.971,4.99,18.979c0,10.337-2.317,19.666-6.95,27.98c-4.634,8.318-11.317,14.854-20.05,19.604
		c-8.732,4.753-19.042,7.128-30.921,7.128C214.025,164.328,206.808,162.753,200.57,159.605z M239.421,137.418
		c3.859-2.612,6.889-6.088,9.089-10.426c2.197-4.336,3.297-8.939,3.297-13.813c0-5.463-1.487-9.802-4.456-13.01
		c-2.971-3.208-7.07-4.812-12.297-4.812c-4.99,0-9.418,1.309-13.277,3.921c-3.862,2.614-6.861,6.06-9,10.336
		c-2.139,4.277-3.208,8.911-3.208,13.901c0,5.467,1.484,9.802,4.456,13.01c2.968,3.208,7.128,4.813,12.475,4.813
		C231.251,141.339,235.559,140.032,239.421,137.418z"/>
	<path fill="none" stroke="#212222" stroke-miterlimit="10" d="M301.083,156.397c-5.168-5.285-7.752-12.622-7.752-22.01
		c0-2.611,0.295-5.819,0.891-9.623l8.911-50.437h28.515l-8.732,49.188c-0.356,1.782-0.535,3.506-0.535,5.168
		c0,3.921,1.039,6.981,3.119,9.179c2.078,2.2,5.138,3.297,9.178,3.297c4.99,0,9.535-1.81,13.634-5.436
		c4.099-3.623,6.683-8.523,7.752-14.703l8.198-46.693h28.515l-15.683,88.04h-25.485c0.713-4.277,1.96-9.563,3.743-15.861h-0.535
		c-3.328,5.229-7.992,9.507-13.99,12.832c-6.001,3.324-12.447,4.989-19.336,4.989C313.052,164.328,306.251,161.686,301.083,156.397z
		"/>
	<path fill="none" stroke="#212222" stroke-miterlimit="10" d="M447.845,96.071l-5.881,32.97c-0.239,1.902-0.356,3.149-0.356,3.743
		c0,5.347,2.554,8.02,7.664,8.02c3.564,0,7.307-0.83,11.228-2.495l3.208,21.208c-7.961,3.088-16.101,4.634-24.416,4.634
		c-8.081,0-14.556-2.228-19.426-6.684c-4.874-4.455-7.307-10.898-7.307-19.336c0-2.852,0.237-5.525,0.713-8.021l6.06-34.039h-14.792
		l3.92-21.743h14.614l3.92-21.92l29.05-3.03l-4.456,24.95h21.564l-3.743,21.743H447.845z"/>
	<path fill="none" stroke="#212222" stroke-miterlimit="10" d="M488.923,156.397c-5.168-5.285-7.752-12.622-7.752-22.01
		c0-2.611,0.295-5.819,0.891-9.623l8.911-50.437h28.515l-8.732,49.188c-0.356,1.782-0.535,3.506-0.535,5.168
		c0,3.921,1.039,6.981,3.119,9.179c2.078,2.2,5.138,3.297,9.178,3.297c4.99,0,9.535-1.81,13.634-5.436
		c4.1-3.623,6.684-8.523,7.752-14.703l8.199-46.693h28.514l-15.683,88.04h-25.485c0.713-4.277,1.961-9.563,3.742-15.861h-0.534
		c-3.327,5.229-7.991,9.507-13.99,12.832c-6.001,3.324-12.447,4.989-19.336,4.989C500.891,164.328,494.091,161.686,488.923,156.397z
		"/>
	<path fill="none" stroke="#212222" stroke-miterlimit="10" d="M625.882,159.962c-4.754-2.909-8.26-6.8-10.515-11.673h-0.356
		c-0.833,7.485-1.487,12.18-1.961,14.079h-25.307l22.099-124.753h28.337l-3.742,21.564c-2.022,11.406-4.634,20.913-7.842,28.516
		l0.534,0.178c3.802-4.751,8.377-8.523,13.723-11.316c5.347-2.791,11.406-4.188,18.179-4.188c6.532,0,12.386,1.546,17.555,4.634
		c5.168,3.091,9.236,7.485,12.208,13.188c2.968,5.702,4.455,12.357,4.455,19.96c0,9.863-2.11,18.922-6.327,27.178
		c-4.219,8.26-10.13,14.823-17.732,19.693c-7.604,4.873-16.279,7.307-26.02,7.307C636.396,164.328,630.632,162.872,625.882,159.962z
		 M652.347,137.418c3.979-2.495,7.129-5.882,9.446-10.159c2.316-4.276,3.475-8.969,3.475-14.079c0-5.346-1.576-9.623-4.723-12.831
		c-3.149-3.208-7.396-4.813-12.742-4.813c-4.634,0-8.884,1.248-12.743,3.743c-3.862,2.495-6.922,5.881-9.178,10.158
		c-2.259,4.277-3.387,9.03-3.387,14.258c0,5.346,1.516,9.596,4.545,12.742c3.029,3.149,7.156,4.723,12.386,4.723
		C644.06,141.16,648.365,139.913,652.347,137.418z"/>
	<path fill="none" stroke="#212222" stroke-miterlimit="10" d="M731.207,126.368v0.178c0,4.874,1.662,8.645,4.99,11.317
		c3.325,2.673,7.78,4.01,13.366,4.01c9.624,0,18.059-2.612,25.307-7.842l9.803,18c-11.406,8.198-24.655,12.297-39.743,12.297
		c-12.358,0-22.366-3.118-30.029-9.356c-7.663-6.237-11.495-15.117-11.495-26.644c0-10.81,2.228-20.464,6.683-28.96
		c4.456-8.493,10.811-15.118,19.069-19.871c8.257-4.751,17.97-7.129,29.139-7.129c11.999,0,21.414,2.972,28.248,8.911
		c6.83,5.942,10.247,14.079,10.247,24.416c0,2.971-0.387,6.357-1.158,10.158c-0.774,3.804-1.693,7.307-2.763,10.515H731.207z
		 M742.435,97.854c-4.16,2.971-7.012,7.189-8.554,12.653h36c0.355-1.662,0.534-3.208,0.534-4.634c0-4.157-1.22-7.276-3.653-9.356
		c-2.437-2.077-5.792-3.119-10.069-3.119C751.346,93.397,746.593,94.885,742.435,97.854z"/>
	<path fill="none" stroke="#212222" stroke-miterlimit="10" d="M803.561,162.368l15.505-88.04h25.485
		c-1.069,4.99-2.316,10.101-3.742,15.327h0.356c2.731-5.107,6.505-9.268,11.316-12.476c4.813-3.208,10.365-4.812,16.664-4.812
		c4.633,0,8.85,0.774,12.653,2.316l-10.693,23.703c-3.447-0.949-6.535-1.426-9.268-1.426c-5.586,0-10.367,1.813-14.347,5.436
		c-3.981,3.626-6.565,8.822-7.752,15.595l-7.842,44.376H803.561z"/>
	<path fill="none" stroke="#212222" stroke-miterlimit="10" d="M872.71,155.418l11.228-19.604
		c8.791,4.277,18.356,6.416,28.693,6.416c4.514,0,7.989-0.651,10.426-1.96c2.434-1.307,3.653-3.089,3.653-5.347
		c0-2.02-1.041-3.623-3.119-4.813c-2.08-1.186-5.675-2.139-10.782-2.852c-19.247-2.731-28.871-11.107-28.871-25.128
		c0-9.385,3.832-16.691,11.495-21.921c7.663-5.227,17.493-7.842,29.495-7.842c6.652,0,13.01,0.685,19.069,2.05
		c6.06,1.367,10.93,3.18,14.614,5.436l-10.337,19.782c-4.277-1.899-8.705-3.325-13.277-4.277c-4.575-0.949-8.585-1.426-12.029-1.426
		c-4.16,0-7.279,0.624-9.356,1.871c-2.08,1.248-3.119,2.94-3.119,5.079c0,2.021,0.98,3.595,2.94,4.723
		c1.961,1.131,5.138,1.933,9.535,2.406c8.91,0.952,16.218,3.536,21.921,7.753c5.702,4.219,8.554,10.13,8.554,17.732
		c0,9.387-4.01,16.902-12.029,22.544c-8.02,5.645-19.042,8.466-33.06,8.466C894.452,164.507,882.57,161.478,872.71,155.418z"/>
</g>
<g enable-background="new    ">
	<path fill="#E7211A" d="M151.829,249.73c12.832,0,22.871,3.448,30.119,10.337c7.246,6.893,10.871,16.218,10.871,27.98
		c0,10.1-2.2,19.011-6.594,26.732c-4.397,7.725-10.724,13.723-18.98,18c-8.259,4.277-18.031,6.416-29.317,6.416H111.73
		l-6.238,35.287H75.909l21.92-124.753H151.829z M140.602,314.067c6.533,0,11.94-2.139,16.218-6.416s6.416-9.919,6.416-16.931
		c0-4.87-1.426-8.671-4.277-11.405c-2.852-2.732-6.892-4.1-12.119-4.1h-24.238l-6.772,38.852H140.602z"/>
	<path fill="#E7211A" d="M222.224,374.483h-28.336l15.505-88.04h28.336L222.224,374.483z M214.917,274.236
		c-2.615-2.317-3.921-5.437-3.921-9.356c0-4.871,1.871-9.028,5.614-12.476c3.743-3.444,8.226-5.168,13.456-5.168
		c4.394,0,7.869,1.188,10.426,3.563c2.553,2.379,3.832,5.525,3.832,9.446c0,4.753-1.871,8.853-5.614,12.297
		c-3.743,3.447-8.109,5.168-13.099,5.168C221.094,277.711,217.529,276.553,214.917,274.236z"/>
	<path fill="#E7211A" d="M258.045,366.374c-7.485-6.711-11.228-16.245-11.228-28.604c0-9.86,2.317-18.86,6.95-27
		c4.634-8.137,11.167-14.553,19.604-19.247c8.435-4.692,18.178-7.04,29.228-7.04c6.416,0,11.999,0.802,16.752,2.406
		c4.75,1.604,9.445,4.188,14.079,7.752l-14.792,18.535c-4.634-3.802-10.398-5.703-17.287-5.703c-4.99,0-9.477,1.22-13.456,3.653
		c-3.982,2.437-7.129,5.733-9.446,9.891c-2.316,4.161-3.475,8.675-3.475,13.545c0,12.595,5.881,18.892,17.644,18.892
		c3.921,0,7.543-0.624,10.872-1.872c3.325-1.247,6.772-3.118,10.336-5.613l9.445,20.495c-5.586,3.684-11.2,6.268-16.841,7.752
		c-5.645,1.484-11.793,2.228-18.446,2.228C275.51,376.443,265.53,373.088,258.045,366.374z"/>
	<path fill="#E7211A" d="M435.55,286.443l-39.743,44.198l29.763,43.842h-31.723l-12.832-19.604
		c-5.11-7.842-8.674-13.545-10.693-17.109l-0.713,0.179c-0.596,8.081-1.545,15.803-2.852,23.168l-2.317,13.366h-28.336
		l22.099-124.753h28.336l-6.951,39.564c-1.545,9.031-3.684,19.426-6.416,31.188l0.535,0.179c4.157-5.94,8.493-11.406,13.01-16.396
		l15.861-17.822H435.55z"/>
	<path fill="#E7211A" d="M587.035,249.73l-4.455,25.129h-57.03l-5.347,30.476h53.465l-4.455,24.772h-53.465l-7.842,44.376h-29.584
		l22.099-124.753H587.035z"/>
	<path fill="#E7211A" d="M602.629,371.721c-6.238-3.146-11.021-7.484-14.347-13.01c-3.327-5.524-4.989-11.852-4.989-18.98
		c0-10.692,2.316-20.196,6.949-28.515c4.635-8.314,11.346-14.851,20.14-19.604c8.791-4.751,19.068-7.129,30.832-7.129
		c8.314,0,15.563,1.635,21.742,4.901c6.176,3.269,10.93,7.725,14.258,13.366c3.324,5.645,4.99,11.971,4.99,18.979
		c0,10.337-2.318,19.666-6.951,27.98c-4.635,8.318-11.316,14.854-20.049,19.604c-8.734,4.753-19.043,7.128-30.922,7.128
		C616.085,376.443,608.866,374.868,602.629,371.721z M641.479,349.533c3.861-2.612,6.891-6.088,9.09-10.426
		c2.197-4.336,3.297-8.939,3.297-13.813c0-5.463-1.486-9.802-4.455-13.01c-2.971-3.208-7.07-4.812-12.297-4.812
		c-4.99,0-9.418,1.309-13.277,3.921c-3.863,2.614-6.861,6.06-9,10.336c-2.139,4.277-3.207,8.911-3.207,13.901
		c0,5.467,1.482,9.802,4.455,13.01c2.969,3.208,7.129,4.813,12.475,4.813C633.31,353.454,637.618,352.147,641.479,349.533z"/>
	<path fill="#E7211A" d="M711.519,371.721c-6.238-3.146-11.022-7.484-14.347-13.01c-3.328-5.524-4.99-11.852-4.99-18.98
		c0-10.692,2.316-20.196,6.95-28.515c4.634-8.314,11.345-14.851,20.139-19.604c8.791-4.751,19.069-7.129,30.832-7.129
		c8.314,0,15.563,1.635,21.742,4.901c6.177,3.269,10.93,7.725,14.258,13.366c3.324,5.645,4.99,11.971,4.99,18.979
		c0,10.337-2.317,19.666-6.951,27.98c-4.634,8.318-11.316,14.854-20.049,19.604c-8.733,4.753-19.042,7.128-30.921,7.128
		C724.974,376.443,717.756,374.868,711.519,371.721z M750.369,349.533c3.86-2.612,6.89-6.088,9.09-10.426
		c2.197-4.336,3.297-8.939,3.297-13.813c0-5.463-1.487-9.802-4.455-13.01c-2.972-3.208-7.07-4.812-12.298-4.812
		c-4.99,0-9.417,1.309-13.277,3.921c-3.862,2.614-6.861,6.06-9,10.336c-2.138,4.277-3.207,8.911-3.207,13.901
		c0,5.467,1.483,9.802,4.455,13.01c2.969,3.208,7.129,4.813,12.476,4.813C742.199,353.454,746.507,352.147,750.369,349.533z"/>
	<path fill="#E7211A" d="M817.913,371.899c-5.169-3.03-9.24-7.365-12.208-13.01c-2.972-5.642-4.456-12.267-4.456-19.872
		c0-9.504,1.961-18.445,5.882-26.821s9.534-15.087,16.841-20.139c7.308-5.049,15.772-7.574,25.396-7.574
		c15.087,0,24.89,6.06,29.406,18.179h0.534c-0.239-3.564-0.356-6.118-0.356-7.664c0-5.703,0.713-12.831,2.139-21.386l4.277-23.882
		h28.337l-22.1,124.753h-26.02c0.474-2.731,1.662-7.485,3.564-14.258h-0.356c-8.198,10.813-19.247,16.218-33.148,16.218
		C828.99,376.443,823.081,374.929,817.913,371.899z M859.349,349.533c3.921-2.495,7.009-5.882,9.267-10.159
		c2.256-4.276,3.387-9.027,3.387-14.257c0-5.347-1.515-9.593-4.545-12.743c-3.029-3.146-7.218-4.723-12.564-4.723
		c-4.873,0-9.239,1.248-13.099,3.743c-3.862,2.495-6.861,5.854-9,10.069c-2.139,4.219-3.208,8.941-3.208,14.168
		c0,5.467,1.454,9.774,4.366,12.921c2.91,3.149,7.099,4.723,12.564,4.723C851.15,353.275,855.428,352.028,859.349,349.533z"/>
	<path fill="#E7211A" d="M909.071,367.533l11.228-19.604c8.791,4.277,18.356,6.416,28.693,6.416c4.514,0,7.989-0.651,10.426-1.96
		c2.434-1.307,3.653-3.089,3.653-5.347c0-2.02-1.041-3.623-3.119-4.813c-2.08-1.186-5.675-2.139-10.782-2.852
		c-19.247-2.731-28.871-11.107-28.871-25.128c0-9.385,3.832-16.691,11.495-21.921c7.663-5.227,17.493-7.842,29.495-7.842
		c6.652,0,13.01,0.685,19.069,2.05c6.06,1.367,10.93,3.18,14.614,5.436l-10.337,19.782c-4.277-1.899-8.705-3.325-13.277-4.277
		c-4.575-0.949-8.585-1.426-12.029-1.426c-4.16,0-7.279,0.624-9.356,1.871c-2.08,1.248-3.119,2.94-3.119,5.079
		c0,2.021,0.98,3.595,2.94,4.723c1.961,1.131,5.138,1.933,9.535,2.406c8.91,0.952,16.218,3.536,21.921,7.753
		c5.702,4.219,8.554,10.13,8.554,17.732c0,9.387-4.01,16.902-12.029,22.544c-8.02,5.645-19.042,8.466-33.06,8.466
		C930.813,376.622,918.932,373.593,909.071,367.533z"/>
</g>
<g enable-background="new    ">
	<path fill="none" stroke="#212222" stroke-miterlimit="10" d="M151.829,249.73c12.832,0,22.871,3.448,30.119,10.337
		c7.246,6.893,10.871,16.218,10.871,27.98c0,10.1-2.2,19.011-6.594,26.732c-4.397,7.725-10.724,13.723-18.98,18
		c-8.259,4.277-18.031,6.416-29.317,6.416H111.73l-6.238,35.287H75.909l21.92-124.753H151.829z M140.602,314.067
		c6.533,0,11.94-2.139,16.218-6.416s6.416-9.919,6.416-16.931c0-4.87-1.426-8.671-4.277-11.405c-2.852-2.732-6.892-4.1-12.119-4.1
		h-24.238l-6.772,38.852H140.602z"/>
	<path fill="none" stroke="#212222" stroke-miterlimit="10" d="M222.224,374.483h-28.336l15.505-88.04h28.336L222.224,374.483z
		 M214.917,274.236c-2.615-2.317-3.921-5.437-3.921-9.356c0-4.871,1.871-9.028,5.614-12.476c3.743-3.444,8.226-5.168,13.456-5.168
		c4.394,0,7.869,1.188,10.426,3.563c2.553,2.379,3.832,5.525,3.832,9.446c0,4.753-1.871,8.853-5.614,12.297
		c-3.743,3.447-8.109,5.168-13.099,5.168C221.094,277.711,217.529,276.553,214.917,274.236z"/>
	<path fill="none" stroke="#212222" stroke-miterlimit="10" d="M258.045,366.374c-7.485-6.711-11.228-16.245-11.228-28.604
		c0-9.86,2.317-18.86,6.95-27c4.634-8.137,11.167-14.553,19.604-19.247c8.435-4.692,18.178-7.04,29.228-7.04
		c6.416,0,11.999,0.802,16.752,2.406c4.75,1.604,9.445,4.188,14.079,7.752l-14.792,18.535c-4.634-3.802-10.398-5.703-17.287-5.703
		c-4.99,0-9.477,1.22-13.456,3.653c-3.982,2.437-7.129,5.733-9.446,9.891c-2.316,4.161-3.475,8.675-3.475,13.545
		c0,12.595,5.881,18.892,17.644,18.892c3.921,0,7.543-0.624,10.872-1.872c3.325-1.247,6.772-3.118,10.336-5.613l9.445,20.495
		c-5.586,3.684-11.2,6.268-16.841,7.752c-5.645,1.484-11.793,2.228-18.446,2.228C275.51,376.443,265.53,373.088,258.045,366.374z"/>
	<path fill="none" stroke="#212222" stroke-miterlimit="10" d="M435.55,286.443l-39.743,44.198l29.763,43.842h-31.723
		l-12.832-19.604c-5.11-7.842-8.674-13.545-10.693-17.109l-0.713,0.179c-0.596,8.081-1.545,15.803-2.852,23.168l-2.317,13.366
		h-28.336l22.099-124.753h28.336l-6.951,39.564c-1.545,9.031-3.684,19.426-6.416,31.188l0.535,0.179
		c4.157-5.94,8.493-11.406,13.01-16.396l15.861-17.822H435.55z"/>
	<path fill="none" stroke="#212222" stroke-miterlimit="10" d="M587.035,249.73l-4.455,25.129h-57.03l-5.347,30.476h53.465
		l-4.455,24.772h-53.465l-7.842,44.376h-29.584l22.099-124.753H587.035z"/>
	<path fill="none" stroke="#212222" stroke-miterlimit="10" d="M602.629,371.721c-6.238-3.146-11.021-7.484-14.347-13.01
		c-3.327-5.524-4.989-11.852-4.989-18.98c0-10.692,2.316-20.196,6.949-28.515c4.635-8.314,11.346-14.851,20.14-19.604
		c8.791-4.751,19.068-7.129,30.832-7.129c8.314,0,15.563,1.635,21.742,4.901c6.176,3.269,10.93,7.725,14.258,13.366
		c3.324,5.645,4.99,11.971,4.99,18.979c0,10.337-2.318,19.666-6.951,27.98c-4.635,8.318-11.316,14.854-20.049,19.604
		c-8.734,4.753-19.043,7.128-30.922,7.128C616.085,376.443,608.866,374.868,602.629,371.721z M641.479,349.533
		c3.861-2.612,6.891-6.088,9.09-10.426c2.197-4.336,3.297-8.939,3.297-13.813c0-5.463-1.486-9.802-4.455-13.01
		c-2.971-3.208-7.07-4.812-12.297-4.812c-4.99,0-9.418,1.309-13.277,3.921c-3.863,2.614-6.861,6.06-9,10.336
		c-2.139,4.277-3.207,8.911-3.207,13.901c0,5.467,1.482,9.802,4.455,13.01c2.969,3.208,7.129,4.813,12.475,4.813
		C633.31,353.454,637.618,352.147,641.479,349.533z"/>
	<path fill="none" stroke="#212222" stroke-miterlimit="10" d="M711.519,371.721c-6.238-3.146-11.022-7.484-14.347-13.01
		c-3.328-5.524-4.99-11.852-4.99-18.98c0-10.692,2.316-20.196,6.95-28.515c4.634-8.314,11.345-14.851,20.139-19.604
		c8.791-4.751,19.069-7.129,30.832-7.129c8.314,0,15.563,1.635,21.742,4.901c6.177,3.269,10.93,7.725,14.258,13.366
		c3.324,5.645,4.99,11.971,4.99,18.979c0,10.337-2.317,19.666-6.951,27.98c-4.634,8.318-11.316,14.854-20.049,19.604
		c-8.733,4.753-19.042,7.128-30.921,7.128C724.974,376.443,717.756,374.868,711.519,371.721z M750.369,349.533
		c3.86-2.612,6.89-6.088,9.09-10.426c2.197-4.336,3.297-8.939,3.297-13.813c0-5.463-1.487-9.802-4.455-13.01
		c-2.972-3.208-7.07-4.812-12.298-4.812c-4.99,0-9.417,1.309-13.277,3.921c-3.862,2.614-6.861,6.06-9,10.336
		c-2.138,4.277-3.207,8.911-3.207,13.901c0,5.467,1.483,9.802,4.455,13.01c2.969,3.208,7.129,4.813,12.476,4.813
		C742.199,353.454,746.507,352.147,750.369,349.533z"/>
	<path fill="none" stroke="#212222" stroke-miterlimit="10" d="M817.913,371.899c-5.169-3.03-9.24-7.365-12.208-13.01
		c-2.972-5.642-4.456-12.267-4.456-19.872c0-9.504,1.961-18.445,5.882-26.821s9.534-15.087,16.841-20.139
		c7.308-5.049,15.772-7.574,25.396-7.574c15.087,0,24.89,6.06,29.406,18.179h0.534c-0.239-3.564-0.356-6.118-0.356-7.664
		c0-5.703,0.713-12.831,2.139-21.386l4.277-23.882h28.337l-22.1,124.753h-26.02c0.474-2.731,1.662-7.485,3.564-14.258h-0.356
		c-8.198,10.813-19.247,16.218-33.148,16.218C828.99,376.443,823.081,374.929,817.913,371.899z M859.349,349.533
		c3.921-2.495,7.009-5.882,9.267-10.159c2.256-4.276,3.387-9.027,3.387-14.257c0-5.347-1.515-9.593-4.545-12.743
		c-3.029-3.146-7.218-4.723-12.564-4.723c-4.873,0-9.239,1.248-13.099,3.743c-3.862,2.495-6.861,5.854-9,10.069
		c-2.139,4.219-3.208,8.941-3.208,14.168c0,5.467,1.454,9.774,4.366,12.921c2.91,3.149,7.099,4.723,12.564,4.723
		C851.15,353.275,855.428,352.028,859.349,349.533z"/>
	<path fill="none" stroke="#212222" stroke-miterlimit="10" d="M909.071,367.533l11.228-19.604
		c8.791,4.277,18.356,6.416,28.693,6.416c4.514,0,7.989-0.651,10.426-1.96c2.434-1.307,3.653-3.089,3.653-5.347
		c0-2.02-1.041-3.623-3.119-4.813c-2.08-1.186-5.675-2.139-10.782-2.852c-19.247-2.731-28.871-11.107-28.871-25.128
		c0-9.385,3.832-16.691,11.495-21.921c7.663-5.227,17.493-7.842,29.495-7.842c6.652,0,13.01,0.685,19.069,2.05
		c6.06,1.367,10.93,3.18,14.614,5.436l-10.337,19.782c-4.277-1.899-8.705-3.325-13.277-4.277c-4.575-0.949-8.585-1.426-12.029-1.426
		c-4.16,0-7.279,0.624-9.356,1.871c-2.08,1.248-3.119,2.94-3.119,5.079c0,2.021,0.98,3.595,2.94,4.723
		c1.961,1.131,5.138,1.933,9.535,2.406c8.91,0.952,16.218,3.536,21.921,7.753c5.702,4.219,8.554,10.13,8.554,17.732
		c0,9.387-4.01,16.902-12.029,22.544c-8.02,5.645-19.042,8.466-33.06,8.466C930.813,376.622,918.932,373.593,909.071,367.533z"/>
</g>
</svg>
